<mxfile host="app.diagrams.net" agent="Mozilla/5.0 (Windows NT 10.0; Win64; x64) AppleWebKit/537.36 (KHTML, like Gecko) Chrome/137.0.0.0 Safari/537.36 Edg/137.0.0.0" version="28.0.4">
  <diagram name="第 1 页" id="L3JkcKsGsamUv1ZT6pgu">
    <mxGraphModel dx="895" dy="511" grid="1" gridSize="10" guides="1" tooltips="1" connect="1" arrows="1" fold="1" page="1" pageScale="1" pageWidth="827" pageHeight="1169" math="0" shadow="0">
      <root>
        <mxCell id="0" />
        <mxCell id="1" parent="0" />
        <mxCell id="TOqnptQwhcvpkMN1sj_2-1" value="" style="rounded=0;whiteSpace=wrap;html=1;" vertex="1" parent="1">
          <mxGeometry x="300" y="118" width="290" height="160" as="geometry" />
        </mxCell>
        <mxCell id="TOqnptQwhcvpkMN1sj_2-2" value="Linux 内核" style="text;html=1;align=center;verticalAlign=middle;resizable=0;points=[];autosize=1;strokeColor=none;fillColor=none;" vertex="1" parent="1">
          <mxGeometry x="405" y="118" width="80" height="30" as="geometry" />
        </mxCell>
        <mxCell id="TOqnptQwhcvpkMN1sj_2-3" value="网络协议栈 net/" style="rounded=0;whiteSpace=wrap;html=1;" vertex="1" parent="1">
          <mxGeometry x="310" y="180" width="70" height="40" as="geometry" />
        </mxCell>
        <mxCell id="TOqnptQwhcvpkMN1sj_2-4" value="&lt;span style=&quot;background-color: transparent; color: light-dark(rgb(0, 0, 0), rgb(255, 255, 255));&quot;&gt;文件系统 fs/&lt;/span&gt;" style="rounded=0;whiteSpace=wrap;html=1;" vertex="1" parent="1">
          <mxGeometry x="400" y="178" width="60" height="40" as="geometry" />
        </mxCell>
        <mxCell id="TOqnptQwhcvpkMN1sj_2-5" value="设备驱动 drivers/" style="rounded=0;whiteSpace=wrap;html=1;" vertex="1" parent="1">
          <mxGeometry x="490" y="180" width="70" height="40" as="geometry" />
        </mxCell>
        <mxCell id="TOqnptQwhcvpkMN1sj_2-6" value="内存管理 mm/" style="rounded=0;whiteSpace=wrap;html=1;" vertex="1" parent="1">
          <mxGeometry x="360" y="230" width="60" height="40" as="geometry" />
        </mxCell>
        <mxCell id="TOqnptQwhcvpkMN1sj_2-7" value="进程管理 kernel/" style="rounded=0;whiteSpace=wrap;html=1;" vertex="1" parent="1">
          <mxGeometry x="450" y="230" width="70" height="40" as="geometry" />
        </mxCell>
      </root>
    </mxGraphModel>
  </diagram>
</mxfile>
